{"title":"The Maid 2005 English Subtitles Xvid LKRG","uid":10230523,"size":756434806,"categoryP":"video","categoryS":"movies","magnet":"?xt=urn:btih:f1f2cf052010c0079abe134a1da173bb34feeab5&amp;dn=The+Maid+2005+English+Subtitles+Xvid+LKRG&amp;tr=udp%3A%2F%2Ftracker.openbittorrent.com%3A80&amp;tr=udp%3A%2F%2Fopen.demonii.com%3A1337&amp;tr=udp%3A%2F%2Ftracker.coppersurfer.tk%3A6969&amp;tr=udp%3A%2F%2Fexodus.desync.com%3A6969","seeders":1,"leechers":0,"uploader":".BONE.","files":2,"time":1401131369,"description":"English Subtitles but with some English Speaking Parts\n\nPLOT\n\nEvery year, for thirty days during the lunar seventh month, the Chinese believe that the gates of hell\nare thrown open. Vengeful spirits or hungry ghosts wander among the living, seeking ...\n\n\nRuntime ..........: 1h 29mn\nFile Size ........: 721 MB\nResolution .......: 720 x 352 &lt;a href=&quot;\nhttp://www.imdb.com/title/tt0474791/&quot; rel=&quot;nofollow&quot; target=&quot;_NEW&quot;&gt;\nhttp://www.imdb.com/title/tt0474791/&lt;/a&gt;\nGenre ............: Horror\nLanguage .........: Teochew,Filipino,Tagalog,English\nSubtitles ........: English\nComplete name : The Maid 2005 English Dubbed English Subtitles Xvid LKRGTM_LKRG.avi\nFormat : AVI\nFormat/Info : Audio Video Interleave\nFile size : 721 MiB\nDuration : 1h 29mn\nOverall bit rate : 1 126 Kbps\nWriting application : VirtualDubMod 1.5.10.2 (build 2540/release)\nWriting library : VirtualDubMod build 2540/release\nVideo\nID : 0\nFormat : MPEG-4 Visual\nFormat profile : Advanced Simple@L5\nFormat settings, BVOP : 2\nFormat settings, QPel : No\nFormat settings, GMC : No warppoints\nFormat settings, Matrix : Default (H.263)\nMuxing mode : Packed bitstream\nCodec ID : XVID\nCodec ID/Hint : XviD\nDuration : 1h 29mn\nBit rate : 890 Kbps\nWidth : 720 pixels\nHeight : 352 pixels\nDisplay aspect ratio : 2.479\nFrame rate : 29.970 fps\nColor space : YUV\nChroma subsampling : 4:2:0\nBit depth : 8 bits\nScan type : Progressive\nCompression mode : Lossy\nBits/(Pixel*Frame) : 0.117\nStream size : 570 MiB (79%)\nWriting library : XviD 1.2.1 (UTC 2008-12-04)\nAudio\nID : 1\nFormat : AC-3\nFormat/Info : Audio Coding 3\nMode extension : CM (complete main)\nFormat settings, Endianness : Big\nCodec ID : 2000\nDuration : 1h 29mn\nBit rate mode : Constant\nBit rate : 224 Kbps\nChannel(s) : 2 channels\nChannel positions : Front: L R\nSampling rate : 48.0 KHz\nBit depth : 16 bits\nCompression mode : Lossy\nStream size : 143 MiB (20%)\nAlignment : Split accross interleaves\nInterleave, duration : 33 ms (1.00 video frame)\nInterleave, preload duration : 500 ms\n","torrent":{"xt":"urn:btih:f1f2cf052010c0079abe134a1da173bb34feeab5","amp;dn":"The+Maid+2005+English+Subtitles+Xvid+LKRG","amp;tr":["udp%3A%2F%2Ftracker.openbittorrent.com%3A80","udp%3A%2F%2Fopen.demonii.com%3A1337","udp%3A%2F%2Ftracker.coppersurfer.tk%3A6969","udp%3A%2F%2Fexodus.desync.com%3A6969"],"infoHash":"f1f2cf052010c0079abe134a1da173bb34feeab5","infoHashBuffer":{"type":"Buffer","data":[241,242,207,5,32,16,192,7,154,190,19,74,29,161,115,187,52,254,234,181]},"announce":[],"urlList":[]}}